<?xml version="1.0" encoding="UTF-8"?>
<!DOCTYPE svg PUBLIC "-//W3C//DTD SVG 1.1//EN" "http://www.w3.org/Graphics/SVG/1.1/DTD/svg11.dtd">
<svg xmlns="http://www.w3.org/2000/svg" version="1.1" width="512px" height="512px" style="shape-rendering:geometricPrecision; text-rendering:geometricPrecision; image-rendering:optimizeQuality; fill-rule:evenodd; clip-rule:evenodd" xmlns:xlink="http://www.w3.org/1999/xlink">
<g><path style="opacity:1" fill="#384250" d="M 319.5,35.5 C 381.596,35.945 423.096,65.2783 444,123.5C 453.784,159.849 448.617,193.849 428.5,225.5C 452.153,249.653 475.986,273.653 500,297.5C 504.667,305.167 504.667,312.833 500,320.5C 496.5,324 493,327.5 489.5,331C 480.923,335.907 472.59,335.574 464.5,330C 441,306.5 417.5,283 394,259.5C 364.976,278.505 333.476,284.338 299.5,277C 265.351,268.681 239.184,249.514 221,219.5C 199.001,178.485 199.001,137.485 221,96.5C 243.747,60.0357 276.58,39.7024 319.5,35.5 Z M 313.5,68.5 C 359.716,65.1779 392.216,84.5112 411,126.5C 423.173,165.631 414.34,199.131 384.5,227C 351.583,251.226 316.916,253.893 280.5,235C 246.11,211.87 232.277,179.703 239,138.5C 249.535,99.7946 274.368,76.4613 313.5,68.5 Z"/></g>
<g><path style="opacity:1" fill="#374150" d="M 176.5,431.5 C 177.167,403.669 177.5,375.669 177.5,347.5C 177.5,319.159 176.833,291.159 175.5,263.5C 167.613,259.306 159.78,254.972 152,250.5C 151.333,244.5 151.333,238.5 152,232.5C 157.144,228.859 162.644,225.859 168.5,223.5C 176.868,227.434 185.034,231.767 193,236.5C 196.499,234.752 199.832,232.752 203,230.5C 237.887,283.701 287.054,306.534 350.5,299C 359.345,297.455 368.012,295.289 376.5,292.5C 377.498,316.994 377.831,341.661 377.5,366.5C 375.961,373.219 371.961,378.053 365.5,381C 310.833,411.667 256.167,442.333 201.5,473C 195.008,476.373 188.674,476.039 182.5,472C 125.09,439.88 67.9229,407.38 11,374.5C 9.72457,372.283 8.72457,369.949 8,367.5C 7.33333,296.833 7.33333,226.167 8,155.5C 9,153.5 10,151.5 11,149.5C 67.9229,116.62 125.09,84.1204 182.5,52C 189.481,47.4386 196.481,47.4386 203.5,52C 209.002,55.5855 214.669,58.9188 220.5,62C 213.52,69.6271 207.52,77.9605 202.5,87C 198.958,86.7433 195.624,85.5766 192.5,83.5C 147.995,108.92 103.329,134.087 58.5,159C 57.1667,159.667 57.1667,160.333 58.5,161C 64.9969,164.414 71.3303,168.081 77.5,172C 72.9998,175.085 68.3331,177.918 63.5,180.5C 62.8333,186.833 62.1667,193.167 61.5,199.5C 54.3813,195.274 47.048,191.607 39.5,188.5C 39.3333,243.834 39.5,299.168 40,354.5C 85.6083,380.052 131.108,405.719 176.5,431.5 Z"/></g>
<g><path style="opacity:1" fill="#6ca1d8" d="M 183.5,137.5 C 184.302,136.115 184.969,136.282 185.5,138C 185.43,138.765 185.097,139.265 184.5,139.5C 184.672,138.508 184.338,137.842 183.5,137.5 Z"/></g>
<g><path style="opacity:1" fill="#2d79c7" d="M 288.5,122.5 C 296.167,122.5 303.833,122.5 311.5,122.5C 311.5,146.167 311.5,169.833 311.5,193.5C 303.833,193.5 296.167,193.5 288.5,193.5C 288.5,169.833 288.5,146.167 288.5,122.5 Z"/></g>
<g><path style="opacity:1" fill="#2d7ac8" d="M 372.5,122.5 C 378.167,122.5 383.833,122.5 389.5,122.5C 389.5,146.167 389.5,169.833 389.5,193.5C 383.833,193.5 378.167,193.5 372.5,193.5C 372.5,169.833 372.5,146.167 372.5,122.5 Z"/></g>
<g><path style="opacity:1" fill="#2978c7" d="M 183.5,137.5 C 184.338,137.842 184.672,138.508 184.5,139.5C 184.3,145.504 183.966,151.504 183.5,157.5C 184.247,167.883 185.081,178.216 186,188.5C 168.077,199.213 149.91,209.546 131.5,219.5C 130.667,247.494 130.167,275.494 130,303.5C 121.451,293.286 113.285,282.786 105.5,272C 98.2847,273.736 91.118,275.903 84,278.5C 83.3333,250.167 83.3333,221.833 84,193.5C 116.817,174.177 149.983,155.51 183.5,137.5 Z"/></g>
<g><path style="opacity:1" fill="#397eca" d="M 353.5,122.5 C 357.5,122.5 361.5,122.5 365.5,122.5C 365.5,146.167 365.5,169.833 365.5,193.5C 361.5,193.5 357.5,193.5 353.5,193.5C 353.5,169.833 353.5,146.167 353.5,122.5 Z"/></g>
<g><path style="opacity:1" fill="#2c79c7" d="M 323.5,122.5 C 329.833,122.5 336.167,122.5 342.5,122.5C 342.5,146.167 342.5,169.833 342.5,193.5C 336.167,193.5 329.833,193.5 323.5,193.5C 323.5,169.833 323.5,146.167 323.5,122.5 Z"/></g>
<g><path style="opacity:1" fill="#2978c7" d="M 264.5,122.5 C 269.167,122.5 273.833,122.5 278.5,122.5C 278.5,146.167 278.5,169.833 278.5,193.5C 273.833,193.5 269.167,193.5 264.5,193.5C 264.5,169.833 264.5,146.167 264.5,122.5 Z"/></g>
<g><path style="opacity:1" fill="#616a75" d="M 376.5,292.5 C 376.56,291.957 376.893,291.624 377.5,291.5C 378.829,316.663 378.829,341.663 377.5,366.5C 377.831,341.661 377.498,316.994 376.5,292.5 Z"/></g>
<g><path style="opacity:1" fill="#616974" d="M 175.5,263.5 C 176.833,291.159 177.5,319.159 177.5,347.5C 177.5,375.669 177.167,403.669 176.5,431.5C 176.829,375.428 176.496,319.428 175.5,263.5 Z"/></g>
</svg>
